<svg id="visual" viewBox="0 0 900 600" width="900" height="600" xmlns="http://www.w3.org/2000/svg" xmlns:xlink="http://www.w3.org/1999/xlink" version="1.1"><path d="M0 97L13.7 95C27.3 93 54.7 89 82 86C109.3 83 136.7 81 163.8 83C191 85 218 91 245.2 85C272.3 79 299.7 61 327 54C354.3 47 381.7 51 409 62C436.3 73 463.7 91 491 97C518.3 103 545.7 97 573 90C600.3 83 627.7 75 654.8 79C682 83 709 99 736.2 98C763.3 97 790.7 79 818 67C845.3 55 872.7 49 886.3 46L900 43L900 0L886.3 0C872.7 0 845.3 0 818 0C790.7 0 763.3 0 736.2 0C709 0 682 0 654.8 0C627.7 0 600.3 0 573 0C545.7 0 518.3 0 491 0C463.7 0 436.3 0 409 0C381.7 0 354.3 0 327 0C299.7 0 272.3 0 245.2 0C218 0 191 0 163.8 0C136.7 0 109.3 0 82 0C54.7 0 27.3 0 13.7 0L0 0Z" fill="#a067ff"></path><path d="M0 139L13.7 146C27.3 153 54.7 167 82 169C109.3 171 136.7 161 163.8 158C191 155 218 159 245.2 153C272.3 147 299.7 131 327 128C354.3 125 381.7 135 409 148C436.3 161 463.7 177 491 178C518.3 179 545.7 165 573 158C600.3 151 627.7 151 654.8 153C682 155 709 159 736.2 156C763.3 153 790.7 143 818 133C845.3 123 872.7 113 886.3 108L900 103L900 41L886.3 44C872.7 47 845.3 53 818 65C790.7 77 763.3 95 736.2 96C709 97 682 81 654.8 77C627.7 73 600.3 81 573 88C545.7 95 518.3 101 491 95C463.7 89 436.3 71 409 60C381.7 49 354.3 45 327 52C299.7 59 272.3 77 245.2 83C218 89 191 83 163.8 81C136.7 79 109.3 81 82 84C54.7 87 27.3 91 13.7 93L0 95Z" fill="#8642ff"></path><path d="M0 199L13.7 209C27.3 219 54.7 239 82 249C109.3 259 136.7 259 163.8 269C191 279 218 299 245.2 299C272.3 299 299.7 279 327 272C354.3 265 381.7 271 409 269C436.3 267 463.7 257 491 254C518.3 251 545.7 255 573 252C600.3 249 627.7 239 654.8 248C682 257 709 285 736.2 288C763.3 291 790.7 269 818 251C845.3 233 872.7 219 886.3 212L900 205L900 101L886.3 106C872.7 111 845.3 121 818 131C790.7 141 763.3 151 736.2 154C709 157 682 153 654.8 151C627.7 149 600.3 149 573 156C545.7 163 518.3 177 491 176C463.7 175 436.3 159 409 146C381.7 133 354.3 123 327 126C299.7 129 272.3 145 245.2 151C218 157 191 153 163.8 156C136.7 159 109.3 169 82 167C54.7 165 27.3 151 13.7 144L0 137Z" fill="#6600ff"></path><path d="M0 349L13.7 377C27.3 405 54.7 461 82 478C109.3 495 136.7 473 163.8 476C191 479 218 507 245.2 510C272.3 513 299.7 491 327 466C354.3 441 381.7 413 409 413C436.3 413 463.7 441 491 462C518.3 483 545.7 497 573 500C600.3 503 627.7 495 654.8 488C682 481 709 475 736.2 479C763.3 483 790.7 497 818 498C845.3 499 872.7 487 886.3 481L900 475L900 203L886.3 210C872.7 217 845.3 231 818 249C790.7 267 763.3 289 736.2 286C709 283 682 255 654.8 246C627.7 237 600.3 247 573 250C545.7 253 518.3 249 491 252C463.7 255 436.3 265 409 267C381.7 269 354.3 263 327 270C299.7 277 272.3 297 245.2 297C218 297 191 277 163.8 267C136.7 257 109.3 257 82 247C54.7 237 27.3 217 13.7 207L0 197Z" fill="#5802dc"></path><path d="M0 601L13.7 601C27.3 601 54.7 601 82 601C109.3 601 136.7 601 163.8 601C191 601 218 601 245.2 601C272.3 601 299.7 601 327 601C354.3 601 381.7 601 409 601C436.3 601 463.7 601 491 601C518.3 601 545.7 601 573 601C600.3 601 627.7 601 654.8 601C682 601 709 601 736.2 601C763.3 601 790.7 601 818 601C845.3 601 872.7 601 886.3 601L900 601L900 473L886.3 479C872.7 485 845.3 497 818 496C790.7 495 763.3 481 736.2 477C709 473 682 479 654.8 486C627.7 493 600.3 501 573 498C545.7 495 518.3 481 491 460C463.7 439 436.3 411 409 411C381.7 411 354.3 439 327 464C299.7 489 272.3 511 245.2 508C218 505 191 477 163.8 474C136.7 471 109.3 493 82 476C54.7 459 27.3 403 13.7 375L0 347Z" fill="#4b03ba"></path></svg>