<svg id="visual" viewBox="0 0 960 540" width="960" height="540" xmlns="http://www.w3.org/2000/svg" xmlns:xlink="http://www.w3.org/1999/xlink" version="1.1"><rect x="0" y="0" width="960" height="540" fill="#001122"></rect><defs><linearGradient id="grad1_0" x1="43.8%" y1="0%" x2="100%" y2="100%"><stop offset="14.444444444444446%" stop-color="#ff6f61" stop-opacity="1"></stop><stop offset="85.55555555555554%" stop-color="#ff6f61" stop-opacity="1"></stop></linearGradient></defs><defs><linearGradient id="grad1_1" x1="43.8%" y1="0%" x2="100%" y2="100%"><stop offset="14.444444444444446%" stop-color="#ff6f61" stop-opacity="1"></stop><stop offset="85.55555555555554%" stop-color="#c44c74" stop-opacity="1"></stop></linearGradient></defs><defs><linearGradient id="grad1_2" x1="43.8%" y1="0%" x2="100%" y2="100%"><stop offset="14.444444444444446%" stop-color="#783b6f" stop-opacity="1"></stop><stop offset="85.55555555555554%" stop-color="#c44c74" stop-opacity="1"></stop></linearGradient></defs><defs><linearGradient id="grad1_3" x1="43.8%" y1="0%" x2="100%" y2="100%"><stop offset="14.444444444444446%" stop-color="#783b6f" stop-opacity="1"></stop><stop offset="85.55555555555554%" stop-color="#302a50" stop-opacity="1"></stop></linearGradient></defs><defs><linearGradient id="grad1_4" x1="43.8%" y1="0%" x2="100%" y2="100%"><stop offset="14.444444444444446%" stop-color="#001122" stop-opacity="1"></stop><stop offset="85.55555555555554%" stop-color="#302a50" stop-opacity="1"></stop></linearGradient></defs><defs><linearGradient id="grad2_0" x1="0%" y1="0%" x2="56.3%" y2="100%"><stop offset="14.444444444444446%" stop-color="#ff6f61" stop-opacity="1"></stop><stop offset="85.55555555555554%" stop-color="#ff6f61" stop-opacity="1"></stop></linearGradient></defs><defs><linearGradient id="grad2_1" x1="0%" y1="0%" x2="56.3%" y2="100%"><stop offset="14.444444444444446%" stop-color="#c44c74" stop-opacity="1"></stop><stop offset="85.55555555555554%" stop-color="#ff6f61" stop-opacity="1"></stop></linearGradient></defs><defs><linearGradient id="grad2_2" x1="0%" y1="0%" x2="56.3%" y2="100%"><stop offset="14.444444444444446%" stop-color="#c44c74" stop-opacity="1"></stop><stop offset="85.55555555555554%" stop-color="#783b6f" stop-opacity="1"></stop></linearGradient></defs><defs><linearGradient id="grad2_3" x1="0%" y1="0%" x2="56.3%" y2="100%"><stop offset="14.444444444444446%" stop-color="#302a50" stop-opacity="1"></stop><stop offset="85.55555555555554%" stop-color="#783b6f" stop-opacity="1"></stop></linearGradient></defs><defs><linearGradient id="grad2_4" x1="0%" y1="0%" x2="56.3%" y2="100%"><stop offset="14.444444444444446%" stop-color="#302a50" stop-opacity="1"></stop><stop offset="85.55555555555554%" stop-color="#001122" stop-opacity="1"></stop></linearGradient></defs><g transform="translate(960, 0)"><path d="M0 432C-57.1 426.5 -114.2 421.1 -165.3 399.1C-216.4 377.2 -261.6 338.7 -295.6 295.6C-329.6 252.4 -352.4 204.6 -373.2 154.6C-394.1 104.6 -413.1 52.3 -432 0L0 0Z" fill="#141f3a"></path><path d="M0 345.6C-45.7 341.2 -91.4 336.9 -132.3 319.3C-173.2 301.7 -209.3 271 -236.5 236.5C-263.6 202 -281.9 163.7 -298.6 123.7C-315.3 83.7 -330.4 41.8 -345.6 0L0 0Z" fill="#523463"></path><path d="M0 259.2C-34.3 255.9 -68.5 252.6 -99.2 239.5C-129.9 226.3 -157 203.2 -177.3 177.3C-197.7 151.5 -211.4 122.8 -223.9 92.8C-236.5 62.7 -247.8 31.4 -259.2 0L0 0Z" fill="#9f4275"></path><path d="M0 172.8C-22.8 170.6 -45.7 168.4 -66.1 159.6C-86.6 150.9 -104.6 135.5 -118.2 118.2C-131.8 101 -140.9 81.9 -149.3 61.8C-157.6 41.8 -165.2 20.9 -172.8 0L0 0Z" fill="#e45a6d"></path><path d="M0 86.4C-11.4 85.3 -22.8 84.2 -33.1 79.8C-43.3 75.4 -52.3 67.7 -59.1 59.1C-65.9 50.5 -70.5 40.9 -74.6 30.9C-78.8 20.9 -82.6 10.5 -86.4 0L0 0Z" fill="#ff6f61"></path></g><g transform="translate(0, 540)"><path d="M0 -432C59.8 -428.9 119.6 -425.8 165.3 -399.1C211 -372.4 242.6 -322.1 280.7 -280.7C318.9 -239.3 363.6 -206.8 389.9 -161.5C416.2 -116.2 424.1 -58.1 432 0L0 0Z" fill="#141f3a"></path><path d="M0 -345.6C47.9 -343.1 95.7 -340.6 132.3 -319.3C168.8 -297.9 194.1 -257.7 224.6 -224.6C255.1 -191.5 290.9 -165.4 311.9 -129.2C332.9 -92.9 339.3 -46.5 345.6 0L0 0Z" fill="#523463"></path><path d="M0 -259.2C35.9 -257.3 71.8 -255.5 99.2 -239.5C126.6 -223.5 145.5 -193.3 168.4 -168.4C191.3 -143.6 218.1 -124.1 233.9 -96.9C249.7 -69.7 254.5 -34.9 259.2 0L0 0Z" fill="#9f4275"></path><path d="M0 -172.8C23.9 -171.6 47.9 -170.3 66.1 -159.6C84.4 -149 97 -128.9 112.3 -112.3C127.5 -95.7 145.4 -82.7 156 -64.6C166.5 -46.5 169.6 -23.2 172.8 0L0 0Z" fill="#e45a6d"></path><path d="M0 -86.4C12 -85.8 23.9 -85.2 33.1 -79.8C42.2 -74.5 48.5 -64.4 56.1 -56.1C63.8 -47.9 72.7 -41.4 78 -32.3C83.2 -23.2 84.8 -11.6 86.4 0L0 0Z" fill="#ff6f61"></path></g></svg>